<?xml version="1.0" encoding="UTF-8" standalone="no"?>
<svg
   xmlns:dc="http://purl.org/dc/elements/1.1/"
   xmlns:cc="http://creativecommons.org/ns#"
   xmlns:rdf="http://www.w3.org/1999/02/22-rdf-syntax-ns#"
   xmlns:svg="http://www.w3.org/2000/svg"
   xmlns="http://www.w3.org/2000/svg"
   xmlns:sodipodi="http://sodipodi.sourceforge.net/DTD/sodipodi-0.dtd"
   xmlns:inkscape="http://www.inkscape.org/namespaces/inkscape"
   sodipodi:docname="CCC_icon.svg"
   inkscape:version="1.0 (4035a4fb49, 2020-05-01)"
   id="svg1150"
   version="1.1"
   viewBox="0 0 170 170"
   height="170mm"
   width="170mm">
  <defs
     id="defs1144">
    <filter
       height="1.0000216"
       y="-1.0799826e-05"
       width="1.0000216"
       x="-1.0800174e-05"
       id="filter1846"
       style="color-interpolation-filters:sRGB"
       inkscape:collect="always">
      <feGaussianBlur
         id="feGaussianBlur1848"
         stdDeviation="0.00076492739"
         inkscape:collect="always" />
    </filter>
  </defs>
  <sodipodi:namedview
     inkscape:window-maximized="1"
     inkscape:window-y="22"
     inkscape:window-x="0"
     inkscape:window-height="1058"
     inkscape:window-width="1920"
     showgrid="false"
     inkscape:document-rotation="0"
     inkscape:current-layer="layer1"
     inkscape:document-units="mm"
     inkscape:cy="258.52697"
     inkscape:cx="46.402938"
     inkscape:zoom="0.73904382"
     inkscape:pageshadow="2"
     inkscape:pageopacity="0.0"
     borderopacity="1.0"
     bordercolor="#666666"
     pagecolor="#ffffff"
     id="base" />
  <metadata
     id="metadata1147">
    <rdf:RDF>
      <cc:Work
         rdf:about="">
        <dc:format>image/svg+xml</dc:format>
        <dc:type
           rdf:resource="http://purl.org/dc/dcmitype/StillImage" />
        <dc:title></dc:title>
      </cc:Work>
    </rdf:RDF>
  </metadata>
  <g
     style="display:inline"
     id="layer1"
     inkscape:groupmode="layer"
     inkscape:label="Layer 1">
    <text
       id="text985"
       y="124.36603"
       x="90.878342"
       style="font-size:88.1944px;line-height:1.25;font-family:OpenDyslexic3;-inkscape-font-specification:'OpenDyslexic3, Normal';letter-spacing:0px;word-spacing:0px;display:inline;fill:#550000;stroke-width:0.264583"
       xml:space="preserve"><tspan
         rotate="341.09995 0"
         style="font-size:88.1944px;fill:#550000;stroke-width:0.264583"
         y="124.36603"
         x="90.878342"
         id="tspan983"
         sodipodi:role="line">X</tspan></text>
  </g>
  <g
     inkscape:label="Xs"
     id="layer4"
     inkscape:groupmode="layer" />
  <g
     inkscape:label="Layer 2"
     id="layer2"
     inkscape:groupmode="layer">
    <text
       id="text985-2-9"
       y="122.2227"
       x="96.952217"
       style="font-size:88.1944px;line-height:1.25;font-family:OpenDyslexic3;-inkscape-font-specification:'OpenDyslexic3, Normal';letter-spacing:0px;word-spacing:0px;display:inline;fill:#aa0000;stroke-width:0.264583"
       xml:space="preserve"><tspan
         rotate="341.09995 0"
         style="font-size:88.1944px;fill:#aa0000;stroke-width:0.264583"
         y="122.2227"
         x="96.952217"
         id="tspan983-8-7"
         sodipodi:role="line">X</tspan></text>
  </g>
  <g
     style="display:inline;filter:url(#filter1846)"
     inkscape:label="Layer 3"
     id="layer3"
     inkscape:groupmode="layer">
    <g
       transform="matrix(1.0104726,0,0,1.009285,-1.0615842,-1.1156221)"
       id="g1746">
      <path
         id="path1733"
         style="font-size:307.081px;line-height:1.25;font-family:OpenDyslexic3;-inkscape-font-specification:'OpenDyslexic3, Normal';letter-spacing:0px;word-spacing:0px;fill:#00ff00;stroke-width:1.08808"
         d="m 394.51562,7.0351562 c -0.90926,0.099581 -1.8484,0.1568492 -2.7539,0.2617188 -5.98474,0.693116 -11.88874,1.5016265 -17.70899,2.4257812 -5.82025,0.9241548 -11.55712,1.9639468 -17.21289,3.1191408 -5.65576,1.155193 -11.22942,2.426268 -16.7207,3.8125 -5.49128,1.386232 -10.89977,2.888589 -16.22656,4.505859 -5.3268,1.617271 -10.57207,3.348956 -15.73438,5.197266 -5.1623,1.848309 -10.22865,3.795151 -15.20117,5.839844 -4.97252,2.044692 -9.85204,4.188612 -14.63476,6.429687 -4.78273,2.241075 -9.46957,4.58012 -14.0625,7.017578 -4.59294,2.437458 -9.091,4.971628 -13.49415,7.605469 -4.40314,2.633841 -8.71047,5.367042 -12.92382,8.197266 -4.21336,2.830223 -8.33191,5.758549 -12.35547,8.785156 -4.02357,3.026606 -7.95334,6.15201 -11.78711,9.375 -3.83377,3.222989 -7.57282,6.543518 -11.2168,9.96289 -3.54276,3.419373 -6.9839,6.930953 -10.32422,10.535158 -3.34031,3.6042 -6.57892,7.30081 -9.71679,11.08984 -3.13788,3.78904 -6.1759,7.67067 -9.11133,11.64453 -2.93543,3.97387 -5.76897,8.04053 -8.50196,12.19922 -2.73298,4.1587 -5.36398,8.40843 -7.89453,12.75196 -2.53054,4.34352 -4.96096,8.78023 -7.28906,13.30859 -2.3281,4.52836 -4.55403,9.15009 -6.67969,13.86328 -2.12565,4.71319 -4.151,9.518 -6.07422,14.41602 -1.92321,4.89802 -3.72539,9.87775 -5.4082,14.9375 -1.68281,5.05974 -3.24509,10.19844 -4.6875,15.41992 -1.44241,5.22147 -2.76479,10.525 -3.9668,15.9082 -1.202,5.3832 -2.28448,10.84765 -3.24609,16.39258 -0.96161,5.54493 -1.80223,11.1703 -2.52344,16.87695 -0.7212,5.70666 -1.32193,11.4949 -1.80273,17.36328 -0.4808,5.86839 -0.84163,11.81755 -1.08203,17.84766 -0.2404,6.03011 -0.36133,12.14019 -0.36133,18.33203 0,6.09942 0.12093,12.12302 0.36133,18.07227 0.2404,5.94924 0.60123,11.82397 1.08203,17.62304 0.4808,5.79908 1.08153,11.52298 1.80273,17.17188 0.72121,5.64889 1.56183,11.22393 2.52344,16.72266 0.96161,5.49872 2.04409,10.92098 3.24609,16.26953 1.20201,5.34854 2.52439,10.62194 3.9668,15.82031 1.44241,5.19837 3.00469,10.3229 4.6875,15.37109 1.68281,5.0482 3.48499,10.01995 5.4082,14.91797 1.92322,4.89802 3.94857,9.71081 6.07422,14.43555 2.12566,4.72474 4.35159,9.3626 6.67969,13.91406 2.3281,4.55146 4.75852,9.01635 7.28906,13.39453 2.53055,4.37818 5.16155,8.66814 7.89453,12.87305 2.73299,4.2049 5.56653,8.32384 8.50196,12.35547 2.93543,4.03162 5.97345,7.97759 9.11133,11.83594 3.13787,3.85834 6.37648,7.62938 9.71679,11.31445 3.34032,3.68507 6.78146,7.28313 10.32422,10.79492 3.54276,3.41937 7.17463,6.74185 10.89453,9.96484 3.7199,3.22299 7.52875,6.34644 11.42578,9.37305 3.89704,3.02661 7.88286,5.95493 11.95704,8.78516 4.07417,2.83022 8.23696,5.56342 12.48828,8.19726 4.25131,2.63384 8.59108,5.16801 13.01953,7.60547 4.42845,2.43746 8.94519,4.77846 13.55078,7.01953 4.60559,2.24108 9.2993,4.38305 14.08203,6.42774 4.78273,2.04469 9.65342,3.99153 14.61328,5.83984 5.06109,1.84831 10.19919,3.58 15.41211,5.19727 5.21292,1.61727 10.50048,3.11962 15.86524,4.50586 5.36475,1.38623 10.80568,2.6573 16.32226,3.8125 5.51658,1.15519 11.10893,2.19498 16.77734,3.11914 5.66842,0.92415 11.41413,1.73266 17.23438,2.42578 0.45501,0.0542 0.92688,0.082 1.38281,0.13476 41.50128,-4.26551 81.30625,-13.17406 119.33203,-26.95898 14.57595,-5.17528 21.86524,-15.89504 21.86524,-32.16016 l -1.19336,-98.11328 c -0.64326,0.16609 -1.28643,0.35826 -1.92969,0.52344 -6.47819,1.66348 -12.9554,3.07137 -19.43359,4.22656 -6.47819,1.15519 -12.95736,2.05622 -19.43555,2.70313 -6.47819,0.6469 -12.95541,1.04106 -19.43359,1.17968 -6.47819,0.13863 -12.95736,0.022 -19.43555,-0.34765 -8.90751,-0.36966 -17.51036,-0.92882 -25.81055,-1.67969 -7.68793,-0.69549 -15.0538,-1.59465 -22.2207,-2.61719 -20.60318,3.96558 -41.20735,5.47255 -61.81055,4.29688 -71.26009,-2.95728 -123.08561,-18.11377 -155.47656,-45.46875 -32.39095,-27.35499 -51.41948,-67.6476 -57.08789,-120.87891 0,-73.93238 18.22034,-132.33797 54.66016,-175.21875 37.24959,-42.88078 91.50358,-64.322264 162.76367,-64.322264 19.37807,0 38.69775,1.457769 57.95898,4.33789 0.54902,-0.09754 1.07531,-0.224127 1.62696,-0.318359 3.92234,-0.670012 7.90964,-1.255304 11.96484,-1.757813 4.05519,-0.502509 8.17719,-0.920853 12.36523,-1.255859 4.18805,-0.335006 8.44277,-0.586403 12.76368,-0.753906 4.3209,-0.167503 8.70835,-0.251953 13.1621,-0.251953 6.37698,0 12.74702,0.156847 19.11133,0.46875 6.36432,0.311902 12.72256,0.778539 19.07422,1.402343 6.35167,0.623805 12.6981,1.404138 19.03711,2.339844 6.33901,0.935707 12.67169,2.027782 18.99805,3.275391 0.33234,0.06554 0.66378,0.154301 0.99609,0.220703 V 62.955078 c 0,-15.5258 -7.69438,-25.877467 -23.08008,-31.052734 C 471.88913,19.239635 434.40731,11.022684 394.51562,7.0351562 Z"
         transform="scale(0.26458333)" />
      <path
         id="path1731"
         style="font-size:307.081px;line-height:1.25;font-family:OpenDyslexic3;-inkscape-font-specification:'OpenDyslexic3, Normal';letter-spacing:0px;word-spacing:0px;fill:#00ff00;stroke-width:1.08808"
         d="m 338.00195,4.1777344 c -51.82552,0 -98.38708,7.3932116 -139.68554,22.1796876 C 157.01794,41.143898 121.79248,62.215332 92.640625,89.570312 64.298545,116.92529 42.434529,150.19474 27.048828,189.37891 11.663127,228.56307 3.9707031,272.92234 3.9707031,322.45703 c 0,48.79538 7.6924239,92.7846 23.0781249,131.96875 15.385701,39.18415 37.249717,72.82366 65.591797,100.91797 28.342085,27.35499 62.352335,48.42642 102.031255,63.21289 40.48868,14.7865 85.83699,22.17969 136.04296,22.17969 19.29397,0 38.19682,-1.07306 56.79297,-2.98438 -0.45593,-0.0528 -0.9278,-0.0806 -1.38281,-0.13476 -5.82025,-0.69312 -11.56596,-1.50163 -17.23438,-2.42578 -5.66841,-0.92416 -11.26076,-1.96395 -16.77734,-3.11914 -5.51658,-1.1552 -10.95751,-2.42627 -16.32226,-3.8125 -5.36476,-1.38624 -10.65232,-2.88859 -15.86524,-4.50586 -5.21292,-1.61727 -10.35102,-3.34896 -15.41211,-5.19727 -4.95986,-1.84831 -9.83055,-3.79515 -14.61328,-5.83984 -4.78273,-2.04469 -9.47644,-4.18666 -14.08203,-6.42774 -4.60559,-2.24107 -9.12233,-4.58207 -13.55078,-7.01953 -4.42845,-2.43746 -8.76822,-4.97163 -13.01953,-7.60547 -4.25132,-2.63384 -8.41411,-5.36704 -12.48828,-8.19726 -4.07418,-2.83023 -8.06,-5.75855 -11.95704,-8.78516 -3.89703,-3.02661 -7.70588,-6.15006 -11.42578,-9.37305 -3.7199,-3.22299 -7.35177,-6.54547 -10.89453,-9.96484 -3.54276,-3.51179 -6.9839,-7.10985 -10.32422,-10.79492 -3.34031,-3.68507 -6.57892,-7.45611 -9.71679,-11.31445 -3.13788,-3.85835 -6.1759,-7.80432 -9.11133,-11.83594 -2.93543,-4.03163 -5.76897,-8.15057 -8.50196,-12.35547 -2.73298,-4.20491 -5.36398,-8.49487 -7.89453,-12.87305 -2.53054,-4.37818 -4.96096,-8.84307 -7.28906,-13.39453 -2.3281,-4.55146 -4.55403,-9.18932 -6.67969,-13.91406 -2.12565,-4.72474 -4.151,-9.53753 -6.07422,-14.43555 -1.92321,-4.89802 -3.72539,-9.86977 -5.4082,-14.91797 -1.68281,-5.04819 -3.24509,-10.17272 -4.6875,-15.37109 -1.44241,-5.19837 -2.76479,-10.47177 -3.9668,-15.82031 -1.202,-5.34855 -2.28448,-10.77081 -3.24609,-16.26953 -0.96161,-5.49873 -1.80223,-11.07377 -2.52344,-16.72266 -0.7212,-5.6489 -1.32193,-11.3728 -1.80273,-17.17188 -0.4808,-5.79907 -0.84163,-11.6738 -1.08203,-17.62304 -0.2404,-5.94925 -0.36133,-11.97285 -0.36133,-18.07227 0,-6.19184 0.12093,-12.30192 0.36133,-18.33203 0.2404,-6.03011 0.60123,-11.97927 1.08203,-17.84766 0.4808,-5.86838 1.08153,-11.65662 1.80273,-17.36328 0.72121,-5.70665 1.56183,-11.33202 2.52344,-16.87695 0.96161,-5.54493 2.04409,-11.00938 3.24609,-16.39258 1.20201,-5.3832 2.52439,-10.68673 3.9668,-15.9082 1.44241,-5.22148 3.00469,-10.36018 4.6875,-15.41992 1.68281,-5.05975 3.48499,-10.03948 5.4082,-14.9375 1.92322,-4.89802 3.94857,-9.70283 6.07422,-14.41602 2.12566,-4.71319 4.35159,-9.33492 6.67969,-13.86328 2.3281,-4.52836 4.75852,-8.96507 7.28906,-13.30859 2.53055,-4.34353 5.16155,-8.59326 7.89453,-12.75196 2.73299,-4.15869 5.56653,-8.22535 8.50196,-12.19922 2.93543,-3.97386 5.97345,-7.85549 9.11133,-11.64453 3.13787,-3.78903 6.37648,-7.48564 9.71679,-11.08984 3.34032,-3.604205 6.78146,-7.115785 10.32422,-10.535158 3.64398,-3.419372 7.38303,-6.739901 11.2168,-9.96289 3.83377,-3.22299 7.76354,-6.348394 11.78711,-9.375 4.02356,-3.026607 8.14211,-5.954933 12.35547,-8.785156 4.21335,-2.830224 8.52068,-5.563425 12.92382,-8.197266 4.40315,-2.633841 8.90121,-5.168011 13.49415,-7.605469 4.59293,-2.437458 9.27977,-4.776503 14.0625,-7.017578 4.78272,-2.241075 9.66224,-4.384995 14.63476,-6.429687 4.97252,-2.044693 10.03887,-3.991535 15.20117,-5.839844 5.16231,-1.84831 10.40758,-3.579995 15.73438,-5.197266 5.32679,-1.61727 10.73528,-3.119627 16.22656,-4.505859 5.49128,-1.386232 11.06494,-2.657307 16.7207,-3.8125 5.65577,-1.155194 11.39264,-2.194986 17.21289,-3.1191408 5.82025,-0.9241547 11.72425,-1.7326652 17.70899,-2.4257812 0.9055,-0.1048696 1.84464,-0.1621381 2.7539,-0.2617188 C 376.1795,5.2022984 357.38198,4.1777344 338.00195,4.1777344 Z"
         transform="scale(0.26458333)" />
      <path
         id="path1632"
         style="font-size:307.081px;line-height:1.25;font-family:OpenDyslexic3;-inkscape-font-specification:'OpenDyslexic3, Normal';letter-spacing:0px;word-spacing:0px;fill:#6600ff;stroke-width:1.08808"
         d="m 381.64453,4.1777344 c -51.82551,0 -98.38708,7.3932116 -139.68555,22.1796876 -41.29846,14.786476 -76.52392,35.857912 -105.67578,63.21289 -28.34207,27.354978 -50.20609,60.624428 -65.591794,99.808598 -15.385701,39.18416 -23.078125,83.54343 -23.078125,133.07812 0,48.79538 7.692424,92.7846 23.078125,131.96875 15.385704,39.18415 37.249724,72.82366 65.591794,100.91797 28.34209,27.35499 62.35234,48.42642 102.03125,63.21289 40.48869,14.7865 85.83505,22.17969 136.04102,22.17969 11.63997,0 23.15308,-0.34927 34.53906,-1.04492 -37.7845,-2.49365 -72.58791,-9.52398 -104.38086,-21.13477 -39.67891,-14.78647 -73.68917,-35.8579 -102.03125,-63.21289 -28.34208,-28.09431 -50.20609,-61.73382 -65.5918,-100.91797 -15.38568,-39.18415 -23.07812,-83.17337 -23.07812,-131.96875 0,-49.53469 7.69244,-93.89396 23.07812,-133.07812 15.38571,-39.18417 37.24972,-72.45362 65.5918,-99.808598 C 231.63428,62.215336 266.85974,41.143899 308.1582,26.357422 340.80758,14.66766 376.76141,7.6180944 415.99023,5.1699219 404.72954,4.5090636 393.28161,4.1777344 381.64453,4.1777344 Z"
         transform="scale(0.26458333)" />
      <g
         aria-label="c"
         transform="scale(1.0465609,0.95551053)"
         id="text869-6"
         style="font-size:307.081px;line-height:1.25;font-family:OpenDyslexic3;-inkscape-font-specification:'OpenDyslexic3, Normal';letter-spacing:0px;word-spacing:0px;display:inline;fill:#ff6600;stroke-width:0.287888">
        <path
           d="m 161.73929,26.030518 q 0,4.299134 -2.45665,5.834539 -2.45665,1.228324 -6.4487,-0.614162 -19.03902,-8.291186 -38.38513,-8.291186 -27.023125,0 -41.148851,17.810697 -13.818644,17.810698 -13.818644,48.518797 2.149567,22.109827 14.432806,33.471827 12.28324,11.362 39.306369,12.59032 9.82659,0.61416 19.65318,-2.14956 9.82659,-2.76373 19.65319,-6.14162 8.59826,-3.07081 8.59826,5.52745 l 0.30708,27.63729 q 0,6.75578 -5.52745,8.90535 -20.88151,8.29119 -44.52675,8.29119 -19.039019,0 -34.393069,-6.14162 -15.046968,-6.14162 -25.794803,-17.50362 -10.747835,-11.66908 -16.582374,-27.94437 -5.834539,-16.27529 -5.834539,-36.542637 0,-20.574426 5.834539,-36.849719 Q 40.442293,36.164191 51.190128,24.802195 62.245044,13.440198 77.906174,7.2985779 93.567305,1.156958 113.22049,1.156958 q 23.33815,0 42.68426,7.6770248 5.83454,2.1495672 5.83454,8.5982682 z"
           style="font-size:307.081px;fill:#ff6600;stroke-width:0.287888"
           id="path1629" />
      </g>
    </g>
    <text
       xml:space="preserve"
       style="font-size:88.1944px;line-height:1.25;font-family:OpenDyslexic3;-inkscape-font-specification:'OpenDyslexic3, Normal';letter-spacing:0px;word-spacing:0px;display:inline;fill:#ff0000;stroke-width:0.264583"
       x="101.62159"
       y="120.61237"
       id="text985-2"><tspan
         sodipodi:role="line"
         id="tspan983-8"
         x="101.62159"
         y="120.61237"
         style="font-size:88.1944px;fill:#ff0000;stroke-width:0.264583"
         rotate="341.09995 0">X</tspan></text>
  </g>
</svg>
